# xmcd CD database file
#
# Track frame offsets:
#	150
#	24244
#	46402
#	69469
#	95152
#	117974
#	140283
#	167315
#	190281
#	214298
#
# Disc length: 3173 seconds
#
# Revision: 1
# Processed by: cddbd v1.4PL0 Copyright (c) Steve Scherf et al.
# Submitted via: Feurio! 1.63 - http://www.feurio.com
#
DISCID=880c630a
DTITLE=PIERRE DIDY TCHAKOUNTE - Thhe King of Mangambeu in U.S.A
DYEAR=1900
DGENRE=
TTITLE0=Mythologie of Mangambeu
TTITLE1=Bag li America
TTITLE2=ou ke bouo
TTITLE3=Bou zui yak
TTITLE4=Africa Liberty
TTITLE5=Margot
TTITLE6=Tagny and Magny
TTITLE7=Je men fous des Jaloux
TTITLE8=Martina
TTITLE9=Mythologie of Mangambeu (Instrumental)
EXTD=
EXTT0=
EXTT1=
EXTT2=
EXTT3=
EXTT4=
EXTT5=
EXTT6=
EXTT7=
EXTT8=
EXTT9=
PLAYORDER=
